<?xml version="1.0" standalone="no"?>
<!DOCTYPE svg PUBLIC "-//W3C//DTD SVG 20010904//EN"
 "http://www.w3.org/TR/2001/REC-SVG-20010904/DTD/svg10.dtd">
<svg version="1.0" xmlns="http://www.w3.org/2000/svg"
 width="239.000000pt" height="239.000000pt" viewBox="0 0 239.000000 239.000000"
 preserveAspectRatio="xMidYMid meet">
<metadata>
Created by potrace 1.14, written by Peter Selinger 2001-2017
</metadata>
<g transform="translate(0.000000,239.000000) scale(0.100000,-0.100000)"
fill="#000000" stroke="none">
<path d="M0 1200 l0 -520 1195 0 1195 0 0 520 0 520 -1195 0 -1195 0 0 -520z
m466 104 c81 -184 111 -241 116 -227 5 10 53 119 107 243 l99 225 101 3 c56 1
101 1 101 -1 0 -2 -69 -151 -153 -333 l-154 -329 -109 -3 -110 -3 -156 336
-156 335 103 0 103 0 108 -246z m1084 139 c24 -60 69 -168 100 -241 l57 -133
99 240 99 241 148 0 147 0 0 -335 0 -335 -95 0 -95 0 -2 235 -3 235 -100 -233
-100 -232 -100 0 -99 0 -100 231 -101 232 -3 -234 -2 -234 -95 0 -95 0 0 335
0 335 148 0 148 0 44 -107z m-487 -374 c37 -19 57 -52 57 -96 0 -59 -31 -93
-93 -100 -43 -5 -49 -3 -83 31 -33 33 -36 40 -31 77 10 78 85 121 150 88z"/>
</g>
</svg>
